<?xml version="1.0" encoding="utf-8"?>
<!-- Generator: Adobe Illustrator 16.0.0, SVG Export Plug-In . SVG Version: 6.00 Build 0)  -->
<!DOCTYPE svg PUBLIC "-//W3C//DTD SVG 1.1//EN" "http://www.w3.org/Graphics/SVG/1.1/DTD/svg11.dtd">
<svg version="1.1" id="Layer_1" xmlns="http://www.w3.org/2000/svg" xmlns:xlink="http://www.w3.org/1999/xlink" x="0px" y="0px"
	 width="24px" height="24px" viewBox="0 0 24 24" enable-background="new 0 0 24 24" xml:space="preserve">
<g fill="#fff">
	<polygon points="16.226,8.34 13.768,11.365 6.921,2.939 	"/>
	<path d="M3.75,22.6c-0.797,0-1.273-0.711-1.273-1.902V3.302C2.476,2.73,2.599,1.4,3.733,1.4c0.35,0,0.764,0.133,1.197,0.383
		l0.093,0.054C5.038,1.871,5.05,1.905,5.075,1.935L13.252,12L5.075,22.065C5.046,22.1,5.03,22.14,5.014,22.18l-0.063,0.037
		C4.517,22.467,4.101,22.6,3.75,22.6z"/>
	<polygon points="13.768,12.635 16.216,15.647 6.912,21.073 	"/>
	<path d="M20.368,13.518l-2.952,1.722L14.784,12l2.643-3.252l2.987,1.734c0.716,0.413,1.11,0.942,1.11,1.492
		C21.525,12.53,21.104,13.093,20.368,13.518z"/>
</g>
</svg>
